<svg xmlns="http://www.w3.org/2000/svg" viewBox="0 0 1200 800" width="1200" height="800" font-family="-apple-system, BlinkMacSystemFont, 'Segoe UI', Inter, Helvetica, Arial, sans-serif">
  <defs>
    <filter id="soft" x="-30%" y="-30%" width="160%" height="160%"><feDropShadow dx="0" dy="2" stdDeviation="4" flood-color="#2B2A28" flood-opacity="0.10"/></filter>
    <filter id="lift" x="-40%" y="-40%" width="180%" height="180%"><feDropShadow dx="0" dy="4" stdDeviation="10" flood-color="#2B2A28" flood-opacity="0.14"/></filter>
    <marker id="tip" viewBox="0 0 10 10" refX="8" refY="5" markerWidth="7" markerHeight="7" orient="auto-start-reverse"><path d="M0 1 L9 5 L0 9 z" fill="#7A5AF8"/></marker>
    <marker id="tipg" viewBox="0 0 10 10" refX="8" refY="5" markerWidth="7" markerHeight="7" orient="auto-start-reverse"><path d="M0 1 L9 5 L0 9 z" fill="#B5AEA3"/></marker>
    <g id="ic-zoom"><circle cx="11" cy="11" r="7"/><path d="m21 21-4-4M11 8v6M8 11h6"/></g>
    <g id="ic-pencil"><path d="M12 20h9"/><path d="M16.5 3.5a2.12 2.12 0 0 1 3 3L7 19l-4 1 1-4Z"/></g>
    <g id="ic-copy"><rect x="8" y="8" width="13" height="13" rx="2"/><path d="M4 16a2 2 0 0 1-2-2V4a2 2 0 0 1 2-2h10a2 2 0 0 1 2 2"/></g>
    <g id="ic-folder"><path d="m6 14 1.5-2.9A2 2 0 0 1 9.2 10H20a2 2 0 0 1 1.9 2.5l-1.5 6a2 2 0 0 1-2 1.5H4a2 2 0 0 1-2-2V5a2 2 0 0 1 2-2h3.9a2 2 0 0 1 1.7.9l.8 1.2a2 2 0 0 0 1.7.9H18a2 2 0 0 1 2 2v2"/></g>
    <g id="ic-rename"><path d="M5 4h1a3 3 0 0 1 3 3 3 3 0 0 1 3-3h1"/><path d="M13 20h-1a3 3 0 0 1-3-3 3 3 0 0 1-3 3H5"/><path d="M5 16H4a2 2 0 0 1-2-2v-4a2 2 0 0 1 2-2h1"/><path d="M13 8h7a2 2 0 0 1 2 2v4a2 2 0 0 1-2 2h-7"/><path d="M9 7v10"/></g>
    <g id="ic-archive"><path d="M10 12v-1"/><path d="M10 18v-2"/><path d="M10 7V6"/><path d="M14 2v4a2 2 0 0 0 2 2h4"/><path d="M15.5 22H18a2 2 0 0 0 2-2V7l-5-5H6a2 2 0 0 0-2 2v16a2 2 0 0 0 .27 1"/><circle cx="10" cy="20" r="2"/></g>
    <g id="ic-trash"><path d="M3 6h18"/><path d="M19 6v14c0 1-1 2-2 2H7c-1 0-2-1-2-2V6"/><path d="M8 6V4c0-1 1-2 2-2h4c1 0 2 1 2 2v2"/><path d="M10 11v6M14 11v6"/></g>
    <g id="ic-code"><path d="m18 16 4-4-4-4"/><path d="m6 8-4 4 4 4"/><path d="m14.5 4-5 16"/></g>
    <g id="ic-scaling"><path d="M21 3 9 15"/><path d="M12 3H3v18h18v-9"/><path d="M16 3h5v5"/><path d="M14 15H9v-5"/></g>
    <g id="scene" stroke="#20201D" stroke-width="2.2" fill="none" stroke-linecap="round" stroke-linejoin="round">
      <circle cx="70" cy="47" r="17" fill="#D9C6FB"/>
      <path d="M70 24v-9M86 31l6-6M93 47h9M86 63l6 6M70 70v9M54 63l-6 6M47 47h-9M54 31l-6-6"/>
      <path d="M168 53c-6 0-9-4-7-8 1-4 6-6 9-5 1-8 9-12 15-9 3-8 15-9 19-2 7-3 14 2 13 8 5 1 7 5 5 9-2 5-8 7-12 7z"/>
      <path d="M45 181c-9-2-14-10-11-17-6-6-3-16 5-18 0-9 9-14 16-10 5-7 16-6 19 2 9-1 15 8 11 15 6 5 4 15-4 17-2 7-11 10-17 6-5 6-14 6-19-1z"/>
      <path d="M56 179c1 18 1 36 0 54M63 181c-1 16-1 34 0 52"/>
      <path d="M6 240c54-8 124-30 194-37 100-4 180 21 270 41 60 13 90 24 124 33"/>
    </g>
  </defs>
  <rect width="1200" height="800" fill="#FAF8F4"/>
  <text x="60" y="84" font-size="40" font-weight="700" fill="#2B2A28">Resize images on iPhone and Android</text>
  <text x="60" y="124" font-size="20" fill="#8A8580">Obsidian's resize handle is desktop only. Tap an image, then ⋯ → Resize.</text><g transform="translate(-80,0)">
  <clipPath id="phA"><rect x="180" y="170" width="290" height="600" rx="36"/></clipPath>
  <rect x="180" y="170" width="290" height="600" rx="36" fill="#FFFFFF" stroke="#E6E0D6" stroke-width="1.5" filter="url(#lift)"/>
  <g clip-path="url(#phA)"><rect x="204" y="218" width="200" height="8" rx="4" fill="#DFD9CE"/><rect x="204" y="236" width="140" height="8" rx="4" fill="#E7E2D9"/>
  <clipPath id="pa"><rect x="204" y="260" width="242" height="170" rx="8"/></clipPath><rect x="204" y="260" width="242" height="170" rx="8" fill="#F7F3E8" stroke="#E0D7C2" stroke-width="1.5"/><g clip-path="url(#pa)"><use href="#scene" transform="translate(204,333.2) scale(0.3457)"/></g>
  <circle cx="418" cy="288" r="18" fill="#FFFFFF" stroke="#7A5AF8" stroke-width="2" filter="url(#soft)"/>
  <g fill="#7A5AF8"><circle cx="410" cy="288" r="2.4"/><circle cx="418" cy="288" r="2.4"/><circle cx="426" cy="288" r="2.4"/></g>
  <rect x="180" y="170" width="290" height="600" fill="#2B2A28" fill-opacity="0.10"/>
  <rect x="180" y="500" width="290" height="290" rx="24" fill="#FFFFFF"/>
  <rect x="305" y="512" width="40" height="5" rx="2.5" fill="#D6D0C6"/>
  <rect x="192" y="582" width="266" height="44" rx="10" fill="#EFEAFE"/>
  <g font-size="16" fill="#2B2A28"><text x="242" y="556">Edit link</text><text x="242" y="610" font-weight="700" fill="#7A5AF8">Resize</text><text x="242" y="664">Rename after this note</text><text x="242" y="718" fill="#E5484D" font-weight="600">Delete image</text></g>
  <g stroke-width="1.8" fill="none" stroke-linecap="round" stroke-linejoin="round"><use href="#ic-code" stroke="#8A8580" transform="translate(204,538) scale(1)"/></g><g stroke-width="1.8" fill="none" stroke-linecap="round" stroke-linejoin="round"><use href="#ic-scaling" stroke="#7A5AF8" transform="translate(204,592) scale(1)"/></g><g stroke-width="1.8" fill="none" stroke-linecap="round" stroke-linejoin="round"><use href="#ic-rename" stroke="#7A5AF8" transform="translate(204,646) scale(1)"/></g><g stroke-width="1.8" fill="none" stroke-linecap="round" stroke-linejoin="round"><use href="#ic-trash" stroke="#E5484D" transform="translate(204,700) scale(1)"/></g></g>  <clipPath id="phB"><rect x="700" y="170" width="290" height="600" rx="36"/></clipPath>
  <rect x="700" y="170" width="290" height="600" rx="36" fill="#FFFFFF" stroke="#E6E0D6" stroke-width="1.5" filter="url(#lift)"/>
  <g clip-path="url(#phB)"><rect x="724" y="218" width="200" height="8" rx="4" fill="#DFD9CE"/><rect x="724" y="236" width="140" height="8" rx="4" fill="#E7E2D9"/>
  <clipPath id="pb"><rect x="724" y="260" width="128" height="90" rx="8"/></clipPath><rect x="724" y="260" width="128" height="90" rx="8" fill="#F7F3E8" stroke="#E0D7C2" stroke-width="1.5"/><g clip-path="url(#pb)"><use href="#scene" transform="translate(724,298.8) scale(0.1829)"/></g>
  <rect x="724" y="366" width="190" height="8" rx="4" fill="#E7E2D9"/>
  <rect x="714" y="396" width="262" height="132" rx="16" fill="#FFFFFF" stroke="#E6E0D6" filter="url(#lift)"/>
  <rect x="732" y="428" width="160" height="6" rx="3" fill="#E4DFD7"/><rect x="732" y="428" width="78" height="6" rx="3" fill="#7A5AF8"/>
  <circle cx="810" cy="431" r="12" fill="#FFFFFF" stroke="#D6D0C6" filter="url(#soft)"/>
  <text x="956" y="437" text-anchor="end" font-size="15" fill="#8A8580">128px</text>
  <g font-size="13" fill="#2B2A28" text-anchor="middle">
    <rect x="728" y="466" width="40" height="36" rx="8" fill="#F1EEE8"/><text x="748" y="489">25%</text>
    <rect x="774" y="466" width="40" height="36" rx="8" fill="#EFEAFE"/><text x="794" y="489" fill="#7A5AF8" font-weight="700">50%</text>
    <rect x="820" y="466" width="40" height="36" rx="8" fill="#F1EEE8"/><text x="840" y="489">75%</text>
    <rect x="866" y="466" width="44" height="36" rx="8" fill="#F1EEE8"/><text x="888" y="489">100%</text>
    <rect x="916" y="466" width="48" height="36" rx="8" fill="#F1EEE8"/><text x="940" y="489">Original</text>
  </g>
  <rect x="724" y="556" width="210" height="8" rx="4" fill="#DFD9CE"/><rect x="724" y="574" width="170" height="8" rx="4" fill="#E7E2D9"/>
  <rect x="724" y="610" width="242" height="38" rx="8" fill="#F7F3E8"/>
  <text x="736" y="635" font-size="14" fill="#2B2A28" font-family="ui-monospace, SFMono-Regular, Menlo, monospace">![[photo.png|128]]</text></g>
  <path d="M500 470 C 560 470, 620 430, 690 420" stroke="#7A5AF8" stroke-width="2.5" fill="none" marker-end="url(#tip)"/>
  <text x="1040" y="300" font-size="18" font-weight="600" fill="#2B2A28">Drag to preview,</text>
  <text x="1040" y="326" font-size="18" font-weight="600" fill="#2B2A28">let go to save.</text>
  <text x="1040" y="358" font-size="16" fill="#8A8580">One undo reverts it.</text>
  <text x="1040" y="610" font-size="18" font-weight="600" fill="#2B2A28">Same width syntax</text>
  <text x="1040" y="636" font-size="18" font-weight="600" fill="#2B2A28">as the desktop handle.</text>


</g>
</svg>
